<svg xmlns="http://www.w3.org/2000/svg" viewBox="0 0 256 256" role="img" aria-label="Teseo icon">
  <!-- Placeholder icon (replace with the official SVG when provided).
       Hardcoded stroke color to avoid accidental recoloring. -->
  <g fill="none" stroke="#B8735A" stroke-width="10" stroke-linecap="round">
    <path d="M128 38c28 0 52 10 70 28" />
    <path d="M198 66c18 18 28 42 28 70" />
    <path d="M226 136c0 28-10 52-28 70" />
    <path d="M198 206c-18 18-42 28-70 28" />
    <path d="M128 234c-28 0-52-10-70-28" />
    <path d="M58 206c-18-18-28-42-28-70" />
    <path d="M30 136c0-28 10-52 28-70" />
    <path d="M58 66c18-18 42-28 70-28" />
    <path d="M128 70c16 0 30 6 40 16" opacity="0.9"/>
    <path d="M168 86c10 10 16 24 16 40" opacity="0.9"/>
    <path d="M184 126c0 16-6 30-16 40" opacity="0.9"/>
    <path d="M168 166c-10 10-24 16-40 16" opacity="0.9"/>
    <path d="M128 182c-16 0-30-6-40-16" opacity="0.9"/>
    <path d="M88 166c-10-10-16-24-16-40" opacity="0.9"/>
    <path d="M72 126c0-16 6-30 16-40" opacity="0.9"/>
    <path d="M88 86c10-10 24-16 40-16" opacity="0.9"/>
  </g>
</svg>

