<svg xmlns="http://www.w3.org/2000/svg" viewBox="0 0 420 96" role="img" aria-label="Teseo">
  <!-- Placeholder lockup (replace with the official SVG when provided). -->
  <g transform="translate(0,8)">
    <svg x="0" y="0" width="80" height="80" viewBox="0 0 256 256">
      <g fill="none" stroke="#B8735A" stroke-width="10" stroke-linecap="round">
        <path d="M128 38c28 0 52 10 70 28" />
        <path d="M198 66c18 18 28 42 28 70" />
        <path d="M226 136c0 28-10 52-28 70" />
        <path d="M198 206c-18 18-42 28-70 28" />
        <path d="M128 234c-28 0-52-10-70-28" />
        <path d="M58 206c-18-18-28-42-28-70" />
        <path d="M30 136c0-28 10-52 28-70" />
        <path d="M58 66c18-18 42-28 70-28" />
      </g>
    </svg>
    <text x="98" y="50" font-family="ui-sans-serif, system-ui, -apple-system, Segoe UI, Roboto, Inter, Arial" font-size="40" fill="#FAF9F5" font-weight="600">Teseo</text>
  </g>
</svg>

